<svg aria-roledescription="er" viewBox="0 0 168.7734375 554" style="max-width: 168.773px; background-color: white;" xmlns:xlink="http://www.w3.org/1999/xlink" xmlns="http://www.w3.org/2000/svg" width="100%" id="mermaid-0"><style>#mermaid-0{font-family:"trebuchet ms",verdana,arial,sans-serif;font-size:16px;fill:#000000;}#mermaid-0 .error-icon{fill:#552222;}#mermaid-0 .error-text{fill:#552222;stroke:#552222;}#mermaid-0 .edge-thickness-normal{stroke-width:2px;}#mermaid-0 .edge-thickness-thick{stroke-width:3.5px;}#mermaid-0 .edge-pattern-solid{stroke-dasharray:0;}#mermaid-0 .edge-pattern-dashed{stroke-dasharray:3;}#mermaid-0 .edge-pattern-dotted{stroke-dasharray:2;}#mermaid-0 .marker{fill:#000000;stroke:#000000;}#mermaid-0 .marker.cross{stroke:#000000;}#mermaid-0 svg{font-family:"trebuchet ms",verdana,arial,sans-serif;font-size:16px;}#mermaid-0 .entityBox{fill:#cde498;stroke:#13540c;}#mermaid-0 .attributeBoxOdd{fill:#ffffff;stroke:#13540c;}#mermaid-0 .attributeBoxEven{fill:#f2f2f2;stroke:#13540c;}#mermaid-0 .relationshipLabelBox{fill:hsl(78.1578947368, 58.4615384615%, 84.5098039216%);opacity:0.7;background-color:hsl(78.1578947368, 58.4615384615%, 84.5098039216%);}#mermaid-0 .relationshipLabelBox rect{opacity:0.5;}#mermaid-0 .relationshipLine{stroke:#000000;}#mermaid-0 .entityTitleText{text-anchor:middle;font-size:18px;fill:#000000;}#mermaid-0 :root{--mermaid-font-family:"trebuchet ms",verdana,arial,sans-serif;}</style><g/><defs><marker orient="auto" markerHeight="18" markerWidth="18" refY="9" refX="0" id="ONLY_ONE_START"><path d="M9,0 L9,18 M15,0 L15,18" fill="none" stroke="gray"/></marker></defs><defs><marker orient="auto" markerHeight="18" markerWidth="18" refY="9" refX="18" id="ONLY_ONE_END"><path d="M3,0 L3,18 M9,0 L9,18" fill="none" stroke="gray"/></marker></defs><defs><marker orient="auto" markerHeight="18" markerWidth="30" refY="9" refX="0" id="ZERO_OR_ONE_START"><circle r="6" cy="9" cx="21" fill="white" stroke="gray"/><path d="M9,0 L9,18" fill="none" stroke="gray"/></marker></defs><defs><marker orient="auto" markerHeight="18" markerWidth="30" refY="9" refX="30" id="ZERO_OR_ONE_END"><circle r="6" cy="9" cx="9" fill="white" stroke="gray"/><path d="M21,0 L21,18" fill="none" stroke="gray"/></marker></defs><defs><marker orient="auto" markerHeight="36" markerWidth="45" refY="18" refX="18" id="ONE_OR_MORE_START"><path d="M0,18 Q 18,0 36,18 Q 18,36 0,18 M42,9 L42,27" fill="none" stroke="gray"/></marker></defs><defs><marker orient="auto" markerHeight="36" markerWidth="45" refY="18" refX="27" id="ONE_OR_MORE_END"><path d="M3,9 L3,27 M9,18 Q27,0 45,18 Q27,36 9,18" fill="none" stroke="gray"/></marker></defs><defs><marker orient="auto" markerHeight="36" markerWidth="57" refY="18" refX="18" id="ZERO_OR_MORE_START"><circle r="6" cy="18" cx="48" fill="white" stroke="gray"/><path d="M0,18 Q18,0 36,18 Q18,36 0,18" fill="none" stroke="gray"/></marker></defs><defs><marker orient="auto" markerHeight="36" markerWidth="57" refY="18" refX="39" id="ZERO_OR_MORE_END"><circle r="6" cy="18" cx="9" fill="white" stroke="gray"/><path d="M21,18 Q39,0 57,18 Q39,36 21,18" fill="none" stroke="gray"/></marker></defs><path style="stroke: gray; fill: none;" marker-start="url(#ZERO_OR_MORE_START)" marker-end="url(#ONLY_ONE_END)" d="M84.38671875,322L84.38671875,330.3333333333333C84.38671875,338.6666666666667,84.38671875,355.3333333333333,84.38671875,372C84.38671875,388.6666666666667,84.38671875,405.3333333333333,84.38671875,413.6666666666667L84.38671875,422" class="er relationshipLine"/><path style="stroke: gray; fill: none;" marker-start="url(#ZERO_OR_MORE_START)" marker-end="url(#ONLY_ONE_END)" d="M84.38671875,88L84.38671875,96.33333333333333C84.38671875,104.66666666666667,84.38671875,121.33333333333333,84.38671875,138C84.38671875,154.66666666666666,84.38671875,171.33333333333334,84.38671875,179.66666666666666L84.38671875,188" class="er relationshipLine"/><g transform="translate(27.6484375,422 )" id="entity-User-567ad7b3-3d9e-4667-bb22-c22bdf60725c"><rect height="112" width="113.4765625" y="0" x="0" class="er entityBox"/><text style="dominant-baseline: middle; text-anchor: middle; font-size: 12px;" transform="translate(56.73828125,12)" y="0" x="0" id="text-entity-User-567ad7b3-3d9e-4667-bb22-c22bdf60725c" class="er entityLabel">User</text><rect height="22" width="46.2265625" y="24" x="0" class="er attributeBoxOdd"/><text style="dominant-baseline: middle; font-size: 10.2px;" transform="translate(5,35)" y="0" x="0" id="text-entity-User-567ad7b3-3d9e-4667-bb22-c22bdf60725c-attr-1-type" class="er entityLabel">String</text><rect height="22" width="45.6875" y="24" x="46.2265625" class="er attributeBoxOdd"/><text style="dominant-baseline: middle; font-size: 10.2px;" transform="translate(51.2265625,35)" y="0" x="0" id="text-entity-User-567ad7b3-3d9e-4667-bb22-c22bdf60725c-attr-1-name" class="er entityLabel">id</text><rect height="22" width="21.5625" y="24" x="91.9140625" class="er attributeBoxOdd"/><text style="dominant-baseline: middle; font-size: 10.2px;" transform="translate(96.9140625,35)" y="0" x="0" id="text-entity-User-567ad7b3-3d9e-4667-bb22-c22bdf60725c-attr-1-key" class="er entityLabel">PK</text><rect height="22" width="46.2265625" y="46" x="0" class="er attributeBoxEven"/><text style="dominant-baseline: middle; font-size: 10.2px;" transform="translate(5,57)" y="0" x="0" id="text-entity-User-567ad7b3-3d9e-4667-bb22-c22bdf60725c-attr-2-type" class="er entityLabel">String</text><rect height="22" width="45.6875" y="46" x="46.2265625" class="er attributeBoxEven"/><text style="dominant-baseline: middle; font-size: 10.2px;" transform="translate(51.2265625,57)" y="0" x="0" id="text-entity-User-567ad7b3-3d9e-4667-bb22-c22bdf60725c-attr-2-name" class="er entityLabel">email</text><rect height="22" width="21.5625" y="46" x="91.9140625" class="er attributeBoxEven"/><text style="dominant-baseline: middle; font-size: 10.2px;" transform="translate(96.9140625,57)" y="0" x="0" id="text-entity-User-567ad7b3-3d9e-4667-bb22-c22bdf60725c-attr-2-key" class="er entityLabel"/><rect height="22" width="46.2265625" y="68" x="0" class="er attributeBoxOdd"/><text style="dominant-baseline: middle; font-size: 10.2px;" transform="translate(5,79)" y="0" x="0" id="text-entity-User-567ad7b3-3d9e-4667-bb22-c22bdf60725c-attr-3-type" class="er entityLabel">String</text><rect height="22" width="45.6875" y="68" x="46.2265625" class="er attributeBoxOdd"/><text style="dominant-baseline: middle; font-size: 10.2px;" transform="translate(51.2265625,79)" y="0" x="0" id="text-entity-User-567ad7b3-3d9e-4667-bb22-c22bdf60725c-attr-3-name" class="er entityLabel">name</text><rect height="22" width="21.5625" y="68" x="91.9140625" class="er attributeBoxOdd"/><text style="dominant-baseline: middle; font-size: 10.2px;" transform="translate(96.9140625,79)" y="0" x="0" id="text-entity-User-567ad7b3-3d9e-4667-bb22-c22bdf60725c-attr-3-key" class="er entityLabel"/><rect height="22" width="46.2265625" y="90" x="0" class="er attributeBoxEven"/><text style="dominant-baseline: middle; font-size: 10.2px;" transform="translate(5,101)" y="0" x="0" id="text-entity-User-567ad7b3-3d9e-4667-bb22-c22bdf60725c-attr-4-type" class="er entityLabel">Boolean</text><rect height="22" width="45.6875" y="90" x="46.2265625" class="er attributeBoxEven"/><text style="dominant-baseline: middle; font-size: 10.2px;" transform="translate(51.2265625,101)" y="0" x="0" id="text-entity-User-567ad7b3-3d9e-4667-bb22-c22bdf60725c-attr-4-name" class="er entityLabel">isAdmin</text><rect height="22" width="21.5625" y="90" x="91.9140625" class="er attributeBoxEven"/><text style="dominant-baseline: middle; font-size: 10.2px;" transform="translate(96.9140625,101)" y="0" x="0" id="text-entity-User-567ad7b3-3d9e-4667-bb22-c22bdf60725c-attr-4-key" class="er entityLabel"/></g><g transform="translate(20,188 )" id="entity-Category-2a945570-f322-412f-b40d-6928dfb1040c"><rect height="134" width="128.7734375" y="0" x="0" class="er entityBox"/><text style="dominant-baseline: middle; text-anchor: middle; font-size: 12px;" transform="translate(64.38671875,12)" y="0" x="0" id="text-entity-Category-2a945570-f322-412f-b40d-6928dfb1040c" class="er entityLabel">Category</text><rect height="22" width="46.2265625" y="24" x="0" class="er attributeBoxOdd"/><text style="dominant-baseline: middle; font-size: 10.2px;" transform="translate(5,35)" y="0" x="0" id="text-entity-Category-2a945570-f322-412f-b40d-6928dfb1040c-attr-1-type" class="er entityLabel">Int</text><rect height="22" width="60.984375" y="24" x="46.2265625" class="er attributeBoxOdd"/><text style="dominant-baseline: middle; font-size: 10.2px;" transform="translate(51.2265625,35)" y="0" x="0" id="text-entity-Category-2a945570-f322-412f-b40d-6928dfb1040c-attr-1-name" class="er entityLabel">id</text><rect height="22" width="21.5625" y="24" x="107.2109375" class="er attributeBoxOdd"/><text style="dominant-baseline: middle; font-size: 10.2px;" transform="translate(112.2109375,35)" y="0" x="0" id="text-entity-Category-2a945570-f322-412f-b40d-6928dfb1040c-attr-1-key" class="er entityLabel">PK</text><rect height="22" width="46.2265625" y="46" x="0" class="er attributeBoxEven"/><text style="dominant-baseline: middle; font-size: 10.2px;" transform="translate(5,57)" y="0" x="0" id="text-entity-Category-2a945570-f322-412f-b40d-6928dfb1040c-attr-2-type" class="er entityLabel">String</text><rect height="22" width="60.984375" y="46" x="46.2265625" class="er attributeBoxEven"/><text style="dominant-baseline: middle; font-size: 10.2px;" transform="translate(51.2265625,57)" y="0" x="0" id="text-entity-Category-2a945570-f322-412f-b40d-6928dfb1040c-attr-2-name" class="er entityLabel">name</text><rect height="22" width="21.5625" y="46" x="107.2109375" class="er attributeBoxEven"/><text style="dominant-baseline: middle; font-size: 10.2px;" transform="translate(112.2109375,57)" y="0" x="0" id="text-entity-Category-2a945570-f322-412f-b40d-6928dfb1040c-attr-2-key" class="er entityLabel"/><rect height="22" width="46.2265625" y="68" x="0" class="er attributeBoxOdd"/><text style="dominant-baseline: middle; font-size: 10.2px;" transform="translate(5,79)" y="0" x="0" id="text-entity-Category-2a945570-f322-412f-b40d-6928dfb1040c-attr-3-type" class="er entityLabel">String</text><rect height="22" width="60.984375" y="68" x="46.2265625" class="er attributeBoxOdd"/><text style="dominant-baseline: middle; font-size: 10.2px;" transform="translate(51.2265625,79)" y="0" x="0" id="text-entity-Category-2a945570-f322-412f-b40d-6928dfb1040c-attr-3-name" class="er entityLabel">description</text><rect height="22" width="21.5625" y="68" x="107.2109375" class="er attributeBoxOdd"/><text style="dominant-baseline: middle; font-size: 10.2px;" transform="translate(112.2109375,79)" y="0" x="0" id="text-entity-Category-2a945570-f322-412f-b40d-6928dfb1040c-attr-3-key" class="er entityLabel"/><rect height="22" width="46.2265625" y="90" x="0" class="er attributeBoxEven"/><text style="dominant-baseline: middle; font-size: 10.2px;" transform="translate(5,101)" y="0" x="0" id="text-entity-Category-2a945570-f322-412f-b40d-6928dfb1040c-attr-4-type" class="er entityLabel">String</text><rect height="22" width="60.984375" y="90" x="46.2265625" class="er attributeBoxEven"/><text style="dominant-baseline: middle; font-size: 10.2px;" transform="translate(51.2265625,101)" y="0" x="0" id="text-entity-Category-2a945570-f322-412f-b40d-6928dfb1040c-attr-4-name" class="er entityLabel">color</text><rect height="22" width="21.5625" y="90" x="107.2109375" class="er attributeBoxEven"/><text style="dominant-baseline: middle; font-size: 10.2px;" transform="translate(112.2109375,101)" y="0" x="0" id="text-entity-Category-2a945570-f322-412f-b40d-6928dfb1040c-attr-4-key" class="er entityLabel"/><rect height="22" width="46.2265625" y="112" x="0" class="er attributeBoxOdd"/><text style="dominant-baseline: middle; font-size: 10.2px;" transform="translate(5,123)" y="0" x="0" id="text-entity-Category-2a945570-f322-412f-b40d-6928dfb1040c-attr-5-type" class="er entityLabel">Boolean</text><rect height="22" width="60.984375" y="112" x="46.2265625" class="er attributeBoxOdd"/><text style="dominant-baseline: middle; font-size: 10.2px;" transform="translate(51.2265625,123)" y="0" x="0" id="text-entity-Category-2a945570-f322-412f-b40d-6928dfb1040c-attr-5-name" class="er entityLabel">isMaster</text><rect height="22" width="21.5625" y="112" x="107.2109375" class="er attributeBoxOdd"/><text style="dominant-baseline: middle; font-size: 10.2px;" transform="translate(112.2109375,123)" y="0" x="0" id="text-entity-Category-2a945570-f322-412f-b40d-6928dfb1040c-attr-5-key" class="er entityLabel"/></g><g transform="translate(31.4453125,20 )" id="entity-Date-da3a1170-f890-4083-84d5-761c29d7973b"><rect height="68" width="105.8828125" y="0" x="0" class="er entityBox"/><text style="dominant-baseline: middle; text-anchor: middle; font-size: 12px;" transform="translate(52.94140625,12)" y="0" x="0" id="text-entity-Date-da3a1170-f890-4083-84d5-761c29d7973b" class="er entityLabel">Date</text><rect height="22" width="53.6640625" y="24" x="0" class="er attributeBoxOdd"/><text style="dominant-baseline: middle; font-size: 10.2px;" transform="translate(5,35)" y="0" x="0" id="text-entity-Date-da3a1170-f890-4083-84d5-761c29d7973b-attr-1-type" class="er entityLabel">Int</text><rect height="22" width="30.65625" y="24" x="53.6640625" class="er attributeBoxOdd"/><text style="dominant-baseline: middle; font-size: 10.2px;" transform="translate(58.6640625,35)" y="0" x="0" id="text-entity-Date-da3a1170-f890-4083-84d5-761c29d7973b-attr-1-name" class="er entityLabel">id</text><rect height="22" width="21.5625" y="24" x="84.3203125" class="er attributeBoxOdd"/><text style="dominant-baseline: middle; font-size: 10.2px;" transform="translate(89.3203125,35)" y="0" x="0" id="text-entity-Date-da3a1170-f890-4083-84d5-761c29d7973b-attr-1-key" class="er entityLabel">PK</text><rect height="22" width="53.6640625" y="46" x="0" class="er attributeBoxEven"/><text style="dominant-baseline: middle; font-size: 10.2px;" transform="translate(5,57)" y="0" x="0" id="text-entity-Date-da3a1170-f890-4083-84d5-761c29d7973b-attr-2-type" class="er entityLabel">DateTime</text><rect height="22" width="30.65625" y="46" x="53.6640625" class="er attributeBoxEven"/><text style="dominant-baseline: middle; font-size: 10.2px;" transform="translate(58.6640625,57)" y="0" x="0" id="text-entity-Date-da3a1170-f890-4083-84d5-761c29d7973b-attr-2-name" class="er entityLabel">date</text><rect height="22" width="21.5625" y="46" x="84.3203125" class="er attributeBoxEven"/><text style="dominant-baseline: middle; font-size: 10.2px;" transform="translate(89.3203125,57)" y="0" x="0" id="text-entity-Date-da3a1170-f890-4083-84d5-761c29d7973b-attr-2-key" class="er entityLabel"/></g><rect height="14" width="39.3203125" y="365" x="64.7265625" class="er relationshipLabelBox"/><text style="text-anchor: middle; dominant-baseline: middle; font-size: 12px;" y="372" x="84.38671875" id="rel1" class="er relationshipLabel">creator</text><rect height="14" width="46.59375" y="131" x="61.08984375" class="er relationshipLabelBox"/><text style="text-anchor: middle; dominant-baseline: middle; font-size: 12px;" y="138" x="84.38671875" id="rel2" class="er relationshipLabel">category</text></svg>