<svg aria-roledescription="er" viewBox="0 0 170.74427795410156 554" style="max-width: 170.744px; background-color: white;" xmlns:xlink="http://www.w3.org/1999/xlink" xmlns="http://www.w3.org/2000/svg" width="100%" id="mermaid-0"><style>#mermaid-0{font-family:"trebuchet ms",verdana,arial,sans-serif;font-size:16px;fill:#000000;}#mermaid-0 .error-icon{fill:#552222;}#mermaid-0 .error-text{fill:#552222;stroke:#552222;}#mermaid-0 .edge-thickness-normal{stroke-width:2px;}#mermaid-0 .edge-thickness-thick{stroke-width:3.5px;}#mermaid-0 .edge-pattern-solid{stroke-dasharray:0;}#mermaid-0 .edge-pattern-dashed{stroke-dasharray:3;}#mermaid-0 .edge-pattern-dotted{stroke-dasharray:2;}#mermaid-0 .marker{fill:#000000;stroke:#000000;}#mermaid-0 .marker.cross{stroke:#000000;}#mermaid-0 svg{font-family:"trebuchet ms",verdana,arial,sans-serif;font-size:16px;}#mermaid-0 .entityBox{fill:#cde498;stroke:#13540c;}#mermaid-0 .attributeBoxOdd{fill:#ffffff;stroke:#13540c;}#mermaid-0 .attributeBoxEven{fill:#f2f2f2;stroke:#13540c;}#mermaid-0 .relationshipLabelBox{fill:hsl(78.1578947368, 58.4615384615%, 84.5098039216%);opacity:0.7;background-color:hsl(78.1578947368, 58.4615384615%, 84.5098039216%);}#mermaid-0 .relationshipLabelBox rect{opacity:0.5;}#mermaid-0 .relationshipLine{stroke:#000000;}#mermaid-0 .entityTitleText{text-anchor:middle;font-size:18px;fill:#000000;}#mermaid-0 :root{--mermaid-font-family:"trebuchet ms",verdana,arial,sans-serif;}</style><g/><defs><marker orient="auto" markerHeight="18" markerWidth="18" refY="9" refX="0" id="ONLY_ONE_START"><path d="M9,0 L9,18 M15,0 L15,18" fill="none" stroke="gray"/></marker></defs><defs><marker orient="auto" markerHeight="18" markerWidth="18" refY="9" refX="18" id="ONLY_ONE_END"><path d="M3,0 L3,18 M9,0 L9,18" fill="none" stroke="gray"/></marker></defs><defs><marker orient="auto" markerHeight="18" markerWidth="30" refY="9" refX="0" id="ZERO_OR_ONE_START"><circle r="6" cy="9" cx="21" fill="white" stroke="gray"/><path d="M9,0 L9,18" fill="none" stroke="gray"/></marker></defs><defs><marker orient="auto" markerHeight="18" markerWidth="30" refY="9" refX="30" id="ZERO_OR_ONE_END"><circle r="6" cy="9" cx="9" fill="white" stroke="gray"/><path d="M21,0 L21,18" fill="none" stroke="gray"/></marker></defs><defs><marker orient="auto" markerHeight="36" markerWidth="45" refY="18" refX="18" id="ONE_OR_MORE_START"><path d="M0,18 Q 18,0 36,18 Q 18,36 0,18 M42,9 L42,27" fill="none" stroke="gray"/></marker></defs><defs><marker orient="auto" markerHeight="36" markerWidth="45" refY="18" refX="27" id="ONE_OR_MORE_END"><path d="M3,9 L3,27 M9,18 Q27,0 45,18 Q27,36 9,18" fill="none" stroke="gray"/></marker></defs><defs><marker orient="auto" markerHeight="36" markerWidth="57" refY="18" refX="18" id="ZERO_OR_MORE_START"><circle r="6" cy="18" cx="48" fill="white" stroke="gray"/><path d="M0,18 Q18,0 36,18 Q18,36 0,18" fill="none" stroke="gray"/></marker></defs><defs><marker orient="auto" markerHeight="36" markerWidth="57" refY="18" refX="39" id="ZERO_OR_MORE_END"><circle r="6" cy="18" cx="9" fill="white" stroke="gray"/><path d="M21,18 Q39,0 57,18 Q39,36 21,18" fill="none" stroke="gray"/></marker></defs><path style="stroke: gray; fill: none;" marker-start="url(#ZERO_OR_MORE_START)" marker-end="url(#ONLY_ONE_END)" d="M85.37213897705078,322L85.37213897705078,330.3333333333333C85.37213897705078,338.6666666666667,85.37213897705078,355.3333333333333,85.37213897705078,372C85.37213897705078,388.6666666666667,85.37213897705078,405.3333333333333,85.37213897705078,413.6666666666667L85.37213897705078,422" class="er relationshipLine"/><path style="stroke: gray; fill: none;" marker-start="url(#ZERO_OR_MORE_START)" marker-end="url(#ONLY_ONE_END)" d="M85.37213897705078,88L85.37213897705078,96.33333333333333C85.37213897705078,104.66666666666667,85.37213897705078,121.33333333333333,85.37213897705078,138C85.37213897705078,154.66666666666666,85.37213897705078,171.33333333333334,85.37213897705078,179.66666666666666L85.37213897705078,188" class="er relationshipLine"/><g transform="translate(27.647483825683594,422 )" id="entity-User-41bb3a2d-3e73-4021-be61-9888dd4f977a"><rect height="112" width="115.44931030273438" y="0" x="0" class="er entityBox"/><text style="dominant-baseline: middle; text-anchor: middle; font-size: 12px;" transform="translate(57.72465515136719,12)" y="0" x="0" id="text-entity-User-41bb3a2d-3e73-4021-be61-9888dd4f977a" class="er entityLabel">User</text><rect height="22" width="46.649749755859375" y="24" x="0" class="er attributeBoxOdd"/><text style="dominant-baseline: middle; font-size: 10.2px;" transform="translate(5,35)" y="0" x="0" id="text-entity-User-41bb3a2d-3e73-4021-be61-9888dd4f977a-attr-1-type" class="er entityLabel">String</text><rect height="22" width="46.11187744140625" y="24" x="46.649749755859375" class="er attributeBoxOdd"/><text style="dominant-baseline: middle; font-size: 10.2px;" transform="translate(51.649749755859375,35)" y="0" x="0" id="text-entity-User-41bb3a2d-3e73-4021-be61-9888dd4f977a-attr-1-name" class="er entityLabel">id</text><rect height="22" width="22.68768310546875" y="24" x="92.76162719726562" class="er attributeBoxOdd"/><text style="dominant-baseline: middle; font-size: 10.2px;" transform="translate(97.76162719726562,35)" y="0" x="0" id="text-entity-User-41bb3a2d-3e73-4021-be61-9888dd4f977a-attr-1-key" class="er entityLabel">PK</text><rect height="22" width="46.649749755859375" y="46" x="0" class="er attributeBoxEven"/><text style="dominant-baseline: middle; font-size: 10.2px;" transform="translate(5,57)" y="0" x="0" id="text-entity-User-41bb3a2d-3e73-4021-be61-9888dd4f977a-attr-2-type" class="er entityLabel">String</text><rect height="22" width="46.11187744140625" y="46" x="46.649749755859375" class="er attributeBoxEven"/><text style="dominant-baseline: middle; font-size: 10.2px;" transform="translate(51.649749755859375,57)" y="0" x="0" id="text-entity-User-41bb3a2d-3e73-4021-be61-9888dd4f977a-attr-2-name" class="er entityLabel">email</text><rect height="22" width="22.68768310546875" y="46" x="92.76162719726562" class="er attributeBoxEven"/><text style="dominant-baseline: middle; font-size: 10.2px;" transform="translate(97.76162719726562,57)" y="0" x="0" id="text-entity-User-41bb3a2d-3e73-4021-be61-9888dd4f977a-attr-2-key" class="er entityLabel"/><rect height="22" width="46.649749755859375" y="68" x="0" class="er attributeBoxOdd"/><text style="dominant-baseline: middle; font-size: 10.2px;" transform="translate(5,79)" y="0" x="0" id="text-entity-User-41bb3a2d-3e73-4021-be61-9888dd4f977a-attr-3-type" class="er entityLabel">String</text><rect height="22" width="46.11187744140625" y="68" x="46.649749755859375" class="er attributeBoxOdd"/><text style="dominant-baseline: middle; font-size: 10.2px;" transform="translate(51.649749755859375,79)" y="0" x="0" id="text-entity-User-41bb3a2d-3e73-4021-be61-9888dd4f977a-attr-3-name" class="er entityLabel">name</text><rect height="22" width="22.68768310546875" y="68" x="92.76162719726562" class="er attributeBoxOdd"/><text style="dominant-baseline: middle; font-size: 10.2px;" transform="translate(97.76162719726562,79)" y="0" x="0" id="text-entity-User-41bb3a2d-3e73-4021-be61-9888dd4f977a-attr-3-key" class="er entityLabel"/><rect height="22" width="46.649749755859375" y="90" x="0" class="er attributeBoxEven"/><text style="dominant-baseline: middle; font-size: 10.2px;" transform="translate(5,101)" y="0" x="0" id="text-entity-User-41bb3a2d-3e73-4021-be61-9888dd4f977a-attr-4-type" class="er entityLabel">Boolean</text><rect height="22" width="46.11187744140625" y="90" x="46.649749755859375" class="er attributeBoxEven"/><text style="dominant-baseline: middle; font-size: 10.2px;" transform="translate(51.649749755859375,101)" y="0" x="0" id="text-entity-User-41bb3a2d-3e73-4021-be61-9888dd4f977a-attr-4-name" class="er entityLabel">isAdmin</text><rect height="22" width="22.68768310546875" y="90" x="92.76162719726562" class="er attributeBoxEven"/><text style="dominant-baseline: middle; font-size: 10.2px;" transform="translate(97.76162719726562,101)" y="0" x="0" id="text-entity-User-41bb3a2d-3e73-4021-be61-9888dd4f977a-attr-4-key" class="er entityLabel"/></g><g transform="translate(20,188 )" id="entity-Category-56cc4f35-a91d-4c61-8752-73852c9d8a1d"><rect height="134" width="130.74427795410156" y="0" x="0" class="er entityBox"/><text style="dominant-baseline: middle; text-anchor: middle; font-size: 12px;" transform="translate(65.37213897705078,12)" y="0" x="0" id="text-entity-Category-56cc4f35-a91d-4c61-8752-73852c9d8a1d" class="er entityLabel">Category</text><rect height="22" width="46.649749755859375" y="24" x="0" class="er attributeBoxOdd"/><text style="dominant-baseline: middle; font-size: 10.2px;" transform="translate(5,35)" y="0" x="0" id="text-entity-Category-56cc4f35-a91d-4c61-8752-73852c9d8a1d-attr-1-type" class="er entityLabel">Int</text><rect height="22" width="61.40684509277344" y="24" x="46.649749755859375" class="er attributeBoxOdd"/><text style="dominant-baseline: middle; font-size: 10.2px;" transform="translate(51.649749755859375,35)" y="0" x="0" id="text-entity-Category-56cc4f35-a91d-4c61-8752-73852c9d8a1d-attr-1-name" class="er entityLabel">id</text><rect height="22" width="22.68768310546875" y="24" x="108.05659484863281" class="er attributeBoxOdd"/><text style="dominant-baseline: middle; font-size: 10.2px;" transform="translate(113.05659484863281,35)" y="0" x="0" id="text-entity-Category-56cc4f35-a91d-4c61-8752-73852c9d8a1d-attr-1-key" class="er entityLabel">PK</text><rect height="22" width="46.649749755859375" y="46" x="0" class="er attributeBoxEven"/><text style="dominant-baseline: middle; font-size: 10.2px;" transform="translate(5,57)" y="0" x="0" id="text-entity-Category-56cc4f35-a91d-4c61-8752-73852c9d8a1d-attr-2-type" class="er entityLabel">String</text><rect height="22" width="61.40684509277344" y="46" x="46.649749755859375" class="er attributeBoxEven"/><text style="dominant-baseline: middle; font-size: 10.2px;" transform="translate(51.649749755859375,57)" y="0" x="0" id="text-entity-Category-56cc4f35-a91d-4c61-8752-73852c9d8a1d-attr-2-name" class="er entityLabel">name</text><rect height="22" width="22.68768310546875" y="46" x="108.05659484863281" class="er attributeBoxEven"/><text style="dominant-baseline: middle; font-size: 10.2px;" transform="translate(113.05659484863281,57)" y="0" x="0" id="text-entity-Category-56cc4f35-a91d-4c61-8752-73852c9d8a1d-attr-2-key" class="er entityLabel"/><rect height="22" width="46.649749755859375" y="68" x="0" class="er attributeBoxOdd"/><text style="dominant-baseline: middle; font-size: 10.2px;" transform="translate(5,79)" y="0" x="0" id="text-entity-Category-56cc4f35-a91d-4c61-8752-73852c9d8a1d-attr-3-type" class="er entityLabel">String</text><rect height="22" width="61.40684509277344" y="68" x="46.649749755859375" class="er attributeBoxOdd"/><text style="dominant-baseline: middle; font-size: 10.2px;" transform="translate(51.649749755859375,79)" y="0" x="0" id="text-entity-Category-56cc4f35-a91d-4c61-8752-73852c9d8a1d-attr-3-name" class="er entityLabel">description</text><rect height="22" width="22.68768310546875" y="68" x="108.05659484863281" class="er attributeBoxOdd"/><text style="dominant-baseline: middle; font-size: 10.2px;" transform="translate(113.05659484863281,79)" y="0" x="0" id="text-entity-Category-56cc4f35-a91d-4c61-8752-73852c9d8a1d-attr-3-key" class="er entityLabel"/><rect height="22" width="46.649749755859375" y="90" x="0" class="er attributeBoxEven"/><text style="dominant-baseline: middle; font-size: 10.2px;" transform="translate(5,101)" y="0" x="0" id="text-entity-Category-56cc4f35-a91d-4c61-8752-73852c9d8a1d-attr-4-type" class="er entityLabel">String</text><rect height="22" width="61.40684509277344" y="90" x="46.649749755859375" class="er attributeBoxEven"/><text style="dominant-baseline: middle; font-size: 10.2px;" transform="translate(51.649749755859375,101)" y="0" x="0" id="text-entity-Category-56cc4f35-a91d-4c61-8752-73852c9d8a1d-attr-4-name" class="er entityLabel">color</text><rect height="22" width="22.68768310546875" y="90" x="108.05659484863281" class="er attributeBoxEven"/><text style="dominant-baseline: middle; font-size: 10.2px;" transform="translate(113.05659484863281,101)" y="0" x="0" id="text-entity-Category-56cc4f35-a91d-4c61-8752-73852c9d8a1d-attr-4-key" class="er entityLabel"/><rect height="22" width="46.649749755859375" y="112" x="0" class="er attributeBoxOdd"/><text style="dominant-baseline: middle; font-size: 10.2px;" transform="translate(5,123)" y="0" x="0" id="text-entity-Category-56cc4f35-a91d-4c61-8752-73852c9d8a1d-attr-5-type" class="er entityLabel">Boolean</text><rect height="22" width="61.40684509277344" y="112" x="46.649749755859375" class="er attributeBoxOdd"/><text style="dominant-baseline: middle; font-size: 10.2px;" transform="translate(51.649749755859375,123)" y="0" x="0" id="text-entity-Category-56cc4f35-a91d-4c61-8752-73852c9d8a1d-attr-5-name" class="er entityLabel">isMaster</text><rect height="22" width="22.68768310546875" y="112" x="108.05659484863281" class="er attributeBoxOdd"/><text style="dominant-baseline: middle; font-size: 10.2px;" transform="translate(113.05659484863281,123)" y="0" x="0" id="text-entity-Category-56cc4f35-a91d-4c61-8752-73852c9d8a1d-attr-5-key" class="er entityLabel"/></g><g transform="translate(31.43761444091797,20 )" id="entity-Entry-9247cd62-51c2-4fd2-8b64-f3e017e54777"><rect height="68" width="107.86904907226562" y="0" x="0" class="er entityBox"/><text style="dominant-baseline: middle; text-anchor: middle; font-size: 12px;" transform="translate(53.93452453613281,12)" y="0" x="0" id="text-entity-Entry-9247cd62-51c2-4fd2-8b64-f3e017e54777" class="er entityLabel">Entry</text><rect height="22" width="54.095550537109375" y="24" x="0" class="er attributeBoxOdd"/><text style="dominant-baseline: middle; font-size: 10.2px;" transform="translate(5,35)" y="0" x="0" id="text-entity-Entry-9247cd62-51c2-4fd2-8b64-f3e017e54777-attr-1-type" class="er entityLabel">Int</text><rect height="22" width="31.0858154296875" y="24" x="54.095550537109375" class="er attributeBoxOdd"/><text style="dominant-baseline: middle; font-size: 10.2px;" transform="translate(59.095550537109375,35)" y="0" x="0" id="text-entity-Entry-9247cd62-51c2-4fd2-8b64-f3e017e54777-attr-1-name" class="er entityLabel">id</text><rect height="22" width="22.68768310546875" y="24" x="85.18136596679688" class="er attributeBoxOdd"/><text style="dominant-baseline: middle; font-size: 10.2px;" transform="translate(90.18136596679688,35)" y="0" x="0" id="text-entity-Entry-9247cd62-51c2-4fd2-8b64-f3e017e54777-attr-1-key" class="er entityLabel">PK</text><rect height="22" width="54.095550537109375" y="46" x="0" class="er attributeBoxEven"/><text style="dominant-baseline: middle; font-size: 10.2px;" transform="translate(5,57)" y="0" x="0" id="text-entity-Entry-9247cd62-51c2-4fd2-8b64-f3e017e54777-attr-2-type" class="er entityLabel">DateTime</text><rect height="22" width="31.0858154296875" y="46" x="54.095550537109375" class="er attributeBoxEven"/><text style="dominant-baseline: middle; font-size: 10.2px;" transform="translate(59.095550537109375,57)" y="0" x="0" id="text-entity-Entry-9247cd62-51c2-4fd2-8b64-f3e017e54777-attr-2-name" class="er entityLabel">date</text><rect height="22" width="22.68768310546875" y="46" x="85.18136596679688" class="er attributeBoxEven"/><text style="dominant-baseline: middle; font-size: 10.2px;" transform="translate(90.18136596679688,57)" y="0" x="0" id="text-entity-Entry-9247cd62-51c2-4fd2-8b64-f3e017e54777-attr-2-key" class="er entityLabel"/></g><rect height="14" width="40.65234375" y="365" x="65.04596710205078" class="er relationshipLabelBox"/><text style="text-anchor: middle; dominant-baseline: middle; font-size: 12px;" y="372" x="85.37213897705078" id="rel1" class="er relationshipLabel">creator</text><rect height="14" width="47.67578125" y="131" x="61.53424835205078" class="er relationshipLabelBox"/><text style="text-anchor: middle; dominant-baseline: middle; font-size: 12px;" y="138" x="85.37213897705078" id="rel2" class="er relationshipLabel">category</text></svg>